<?xml version="1.0" encoding="UTF-8" standalone="no"?><!DOCTYPE svg PUBLIC "-//W3C//DTD SVG 1.1//EN" "http://www.w3.org/Graphics/SVG/1.1/DTD/svg11.dtd"><svg width="100%" height="100%" viewBox="0 0 600 300" version="1.1" xmlns="http://www.w3.org/2000/svg" xmlns:xlink="http://www.w3.org/1999/xlink" xml:space="preserve" xmlns:serif="http://www.serif.com/" style="fill-rule:evenodd;clip-rule:evenodd;stroke-miterlimit:2;"><g><g><path d="M602.04,128.065l-505.764,0l-12.356,100.631l505.765,0l12.355,-100.631Z" style="fill:#003049;"/><path d="M629.57,128.065l-505.764,0l-12.356,100.631l505.764,0l12.356,-100.631Z" style="fill:#d12727;"/><path d="M657.1,128.065l-505.765,0l-12.355,100.631l505.764,0l12.356,-100.631Z" style="fill:#fcbf49;"/><path d="M684.63,128.065l-505.764,0l-12.356,100.631l505.765,0l12.355,-100.631Z" style="fill:#fff;"/></g><g><text x="279.067px" y="161.206px" style="font-family:'Arial-BoldMT', 'Arial', sans-serif;font-weight:700;font-size:25.457px;">Deutsche Meisterschaft</text><text x="279.067px" y="187.495px" style="font-family:'Arial-BoldMT', 'Arial', sans-serif;font-weight:700;font-size:25.457px;">Einrad Freestyle 2019</text><text x="279.067px" y="213.786px" style="font-family:'ArialMT', 'Arial', sans-serif;font-size:25.457px;">Nümbrecht</text></g><g><path d="M211,188.802l10.784,-43.952l31.349,35.363l-13.049,30.892l-29.084,-22.303Z" style="fill:#d12727;fill-rule:nonzero;"/><path d="M243.02,150.492l-29.492,18.463l3.186,29.166l33.495,8.006l-7.189,-55.635Z" style="fill:#fcbf49;fill-rule:nonzero;"/><path d="M247.91,211.111c0,0.442 -6.667,0.8 -14.892,0.8c-8.224,0 -14.892,-0.358 -14.892,-0.8c0,-0.442 6.668,-0.8 14.892,-0.8c8.225,0 14.892,0.358 14.892,0.8Z" style="fill-rule:nonzero;"/><path d="M234.56,193.738l0.049,0.529c0.057,0.163 0.113,0.326 0.156,0.492c0.02,0.076 0.031,0.154 0.031,0.232c0,0.076 -0.105,0.204 -0.105,0.204l-0.206,0.131c0,0 -0.433,0.137 -0.551,0.312c-0.044,0.066 -0.016,0.237 -0.016,0.237l0.05,0.099c-0.137,0.05 -0.355,0.169 -0.355,0.169c-0.213,-0.308 -0.426,-0.615 -0.63,-0.929c-0.106,-0.164 -0.208,-0.331 -0.3,-0.503c-0.043,-0.082 -0.074,-0.17 -0.104,-0.257c-0.325,-1.109 -1.402,-2.174 -1.402,-2.174c-1.558,-1.651 -2.305,-2.093 -2.305,-2.093l-0.461,-0.418l0.031,-0.342c0.125,-0.262 0.318,-0.841 0.318,-0.841l0.106,-0.43l1.489,-2.504c0.178,-0.374 0.355,-0.749 0.548,-1.116c0.165,-0.314 0.344,-0.621 0.523,-0.928l0.218,-0.473c0.035,0.226 0.07,0.455 0.143,0.673c0.029,0.086 0.223,0.158 0.223,0.158l2.55,9.772m1.42,11.126c0,0 0.399,0.212 0.797,-0.162c0,0 0.96,0.075 0.785,-0.716l0.528,-0.38l0.22,0.174l0.05,0.362c0.068,0.118 0.138,0.238 0.232,0.338c0.065,0.069 0.149,0.122 0.236,0.161c0.206,0.092 0.465,-0.278 0.533,-0.364c0.012,-0.016 0.028,-0.053 0.009,-0.06c0.09,0.014 0.182,0.005 0.273,0.012c0.041,0.003 0.112,0.049 0.112,0.049c0,0 0.094,0.31 0.199,0.271c0.477,-0.173 0.946,-0.368 1.415,-0.563c0,0 0.831,2.417 -0.01,4.052c0,0 -0.224,0.421 -0.747,0.981c0,0 -2.944,1.533 -6.14,-4.055c0,0 0.131,0.019 0.753,-0.341c0,0 0.344,0.428 0.755,0.241m1.137,-6.535l0.061,0.051l1.063,3.631l-0.137,0.193c0,0 -0.268,0.025 -0.268,0.411l-1.009,0.692c0,0 -0.118,-0.087 -0.317,-0.075l-0.496,-2.333c0,0 0.851,-0.682 0.925,-1.467c0.001,-0.04 0.001,-0.082 -0.014,-0.118c-0.051,-0.121 -0.095,-0.251 -0.182,-0.349c-0.289,-0.326 -1.032,-0.956 -1.439,-1.14l-0.059,-0.15c0,0 0.97,0.009 1.872,0.654m1.797,1.383c-0.019,0.072 -0.038,0.145 -0.046,0.219c-0.009,0.093 -0.027,0.189 -0.004,0.28c0.012,0.045 0.137,0.03 0.137,0.03c0,0 0.1,-0.024 0.144,-0.317c0,0 1.071,1.152 1.538,2.324c0,0 -0.168,-0.056 -0.685,0.18c-0.029,-0.109 -0.058,-0.221 -0.113,-0.321c-0.042,-0.078 -0.106,-0.146 -0.173,-0.204c-0.082,-0.072 -0.182,-0.062 -0.281,-0.06c-0.121,0.002 -0.243,0.022 -0.363,0.012c-0.017,-0.001 -0.02,-0.027 -0.023,-0.044l-0.804,-2.72c0,0 0.549,0.453 0.673,0.621Zm12.862,-5.44c-0.513,-0.92 -0.994,-0.929 -1.532,-1.419c-0.087,-0.08 -0.187,-0.144 -0.286,-0.208c-0.029,-0.018 -0.064,-0.027 -0.097,-0.035c-0.262,-0.285 -0.64,-0.276 -0.64,-0.276c-0.113,-0.067 -0.227,-0.134 -0.323,-0.222c-0.177,-0.161 -0.338,-0.338 -0.492,-0.521c-0.273,-0.327 -0.522,-0.675 -0.788,-1.009c-0.771,-0.968 -1.001,-1.29 -1.849,-2.125c-0.287,-0.283 -0.59,-0.551 -0.892,-0.819c-0.352,-0.36 -0.704,-0.721 -1.069,-1.068c-0.281,-0.268 -0.563,-0.536 -0.867,-0.776c-0.53,-0.419 -0.588,-0.319 -1.147,-0.687c-0.156,-0.103 -0.298,-0.226 -0.435,-0.352c-0.155,-0.142 -0.298,-0.297 -0.44,-0.452c-0.152,-0.175 -0.303,-0.35 -0.444,-0.533c-0.216,-0.28 -0.407,-0.578 -0.626,-0.855c-0.63,-0.796 -1.274,-1.58 -1.919,-2.364c-0.076,-0.076 -0.153,-0.154 -0.212,-0.244c-0.105,-0.159 -0.189,-0.331 -0.279,-0.499c-0.138,-0.259 -0.259,-0.527 -0.404,-0.782c-0.103,-0.181 -0.221,-0.354 -0.339,-0.526l0,-0.122c-0.073,-0.385 -0.249,-0.369 -0.397,-0.668c-0.035,-0.07 -0.045,-0.151 -0.055,-0.229l-0.248,-0.434c0,-0.126 -0.117,-0.369 -0.117,-0.369c-0.122,-0.113 -0.168,-0.271 -0.168,-0.271c-0.067,-0.199 -0.103,-0.171 -0.234,-0.337c-0.07,-0.088 -0.133,-0.182 -0.196,-0.275c-0.365,-0.767 -0.407,-0.697 -0.407,-0.697c-0.053,-0.042 -0.107,-0.084 -0.151,-0.136c-0.133,-0.154 -0.225,-0.34 -0.356,-0.496c-0.065,-0.077 -0.139,-0.145 -0.212,-0.213c-0.178,-0.369 -0.584,-0.491 -0.584,-0.491c-0.019,-0.013 -0.039,-0.028 -0.048,-0.048c-0.073,-0.157 -0.025,-0.178 -0.145,-0.308c-0.03,-0.032 -0.071,-0.051 -0.111,-0.069c-0.006,-0.024 -0.013,-0.052 -0.003,-0.075c0.008,-0.018 0.11,-0.096 0.095,-0.148c-0.032,-0.106 -0.199,-0.268 -0.199,-0.268c0.046,-0.626 -0.603,-0.761 -0.603,-0.761c0.037,-0.454 -0.173,-0.598 -0.173,-0.598c-0.037,-0.197 -0.173,-0.351 -0.173,-0.351l-0.019,-0.532l-0.037,-0.234l-0.164,-0.388c0.103,-0.322 -0.084,-0.537 -0.084,-0.537c0.164,-0.533 0.052,-0.552 0.052,-0.552c0.093,-0.271 -0.061,-0.462 -0.061,-0.462l-0.028,-0.224c0.089,-0.173 0.179,-0.347 0.248,-0.528c0.036,-0.097 0.054,-0.201 0.068,-0.304c0.044,-0.332 0.097,-0.717 0.097,-1.058c-0.001,-0.382 -0.077,-0.692 -0.04,-1.075c0.015,-0.148 0.052,-0.295 0.099,-0.437c0.046,-0.14 0.112,-0.274 0.177,-0.406c0.645,-1.066 0.178,-2.72 0.178,-2.72c0.047,-0.551 -0.159,-1.186 -0.159,-1.186c-0.013,-0.193 -0.026,-0.386 -0.028,-0.58c-0.006,-0.477 -0.009,-1.71 0.038,-2.297c0.013,-0.161 0.033,-0.322 0.074,-0.478c0.026,-0.097 0.088,-0.18 0.124,-0.273c0.015,-0.038 0.02,-0.079 0.026,-0.12c-0.007,-0.043 -0.013,-0.089 -0.003,-0.132c0.04,-0.161 0.114,-0.313 0.152,-0.475c0.052,-0.219 0.095,-0.441 0.117,-0.664c0.1,-0.985 0.039,-1.928 0.07,-2.924c0.008,-0.251 0.043,-0.46 0.198,-0.659c0.056,-0.072 0.131,-0.128 0.204,-0.182c0.357,-0.223 0.715,-0.446 1.056,-0.692c0.109,-0.079 0.201,-0.179 0.291,-0.279c0.06,-0.066 0.096,-0.151 0.157,-0.216c0.052,-0.055 0.116,-0.098 0.178,-0.14c0.045,-0.05 0.091,-0.1 0.146,-0.138c0.188,-0.133 0.329,-0.147 0.481,-0.326c0.053,-0.061 0.198,-0.404 0.223,-0.461c0.053,-0.119 0.106,-0.237 0.159,-0.356c0.033,-0.17 0.033,-0.517 -0.272,-0.294c-0.074,0.054 -0.143,0.118 -0.193,0.195c-0.066,0.102 -0.109,0.218 -0.151,0.333l-0.202,0.092c0.001,0.057 -0.004,0.001 -0.004,0.001l0.004,-0.001c0,-0.025 -0.001,-0.07 -0.004,-0.148c-0.009,-0.262 -0.495,-0.804 -0.495,-0.804c-0.028,-0.054 -0.057,-0.11 -0.1,-0.154c-0.077,-0.079 -0.183,-0.099 -0.274,-0.014c-0.118,0.11 -0.101,0.249 -0.055,0.383c0.029,0.086 0.075,0.165 0.12,0.243c-0.244,0 -0.55,0.447 -0.569,0.475c0.097,-0.211 -0.188,-0.671 -0.188,-0.671l-0.065,-0.383c-0.016,-0.278 -0.32,-0.558 -0.466,-0.153c-0.095,0.262 0.102,0.588 0.158,0.807c0.026,0.103 0.035,0.211 0.043,0.318c0.003,0.075 0.013,0.289 -0.025,0.224c-0.13,-0.227 -0.201,-0.486 -0.271,-0.738c-0.001,-0.049 -0.003,-0.098 -0.018,-0.144c-0.026,-0.076 -0.095,-0.142 -0.187,-0.109c-0.128,0.046 -0.138,0.178 -0.136,0.289c0.002,0.085 0.017,0.17 0.033,0.253l0.14,0.879c-1.299,0.467 -1.173,1.411 -1.173,1.411l-0.042,0.068l-0.355,1.324c-0.049,0.23 -0.097,0.46 -0.159,0.687c-0.254,0.944 -0.56,1.788 -0.691,2.752c-0.029,0.21 -0.055,0.42 -0.096,0.628c-0.009,0.049 -0.032,0.094 -0.054,0.138c-0.381,0.733 -0.408,1.441 -0.448,2.249c-0.039,0.778 -0.07,1.557 -0.1,2.336l-0.193,0.218c-0.461,0.062 -0.66,-0.685 -0.66,-0.685c-0.38,-0.816 -0.268,-1.208 -0.268,-1.208c0.362,-0.032 0.459,-0.422 0.595,-0.676c0.3,-0.561 0.546,-1.151 0.484,-1.791c-0.004,-0.038 -0.008,-0.602 -0.019,-0.672c-0.01,-0.058 -0.046,-0.107 -0.063,-0.163c-0.023,-0.074 -0.04,-0.149 -0.057,-0.225c-0.046,-0.128 -0.093,-0.259 -0.168,-0.373c-0.267,-0.412 -0.673,-1.035 -1.119,-1.282c-0.156,-0.087 -0.399,-0.113 -0.567,-0.169c-0.064,-0.021 -0.123,-0.052 -0.183,-0.082c-0.071,0 -0.144,0.001 -0.215,-0.012c-0.11,-0.019 -0.218,-0.052 -0.327,-0.081c-0.363,-0.099 -0.413,-0.152 -0.822,-0.15c-0.183,0.001 -0.362,0.091 -0.514,0.18c-0.1,0.059 -0.195,0.126 -0.29,0.194l-0.554,0.243c-0.394,0.213 -0.621,0.458 -0.813,0.845c-0.095,0.191 -0.103,0.3 -0.118,0.482c-0.006,0.059 -0.01,0.118 -0.014,0.177l-0.103,0.664c-0.054,0.315 -0.109,0.63 -0.14,0.948c-0.009,0.092 0.005,0.185 0.018,0.276c0.057,0.093 0.114,0.186 0.159,0.285c0.035,0.076 0.093,0.156 0.08,0.238c-0.095,0.567 -0.145,0.799 -0.145,0.799c0.004,0.738 0.289,1.299 0.289,1.299c-2.569,-0.159 -4.06,-2.032 -4.06,-2.032c-0.128,-0.196 -0.257,-0.393 -0.411,-0.569c-0.172,-0.196 -0.358,-0.382 -0.563,-0.543c-0.428,-0.338 -2.026,-1.289 -2.28,-1.457c-0.157,-0.104 -0.3,-0.228 -0.442,-0.352c0,0 -1.246,-0.906 -1.579,-1.569c-0.037,-0.073 -0.053,-0.158 -0.055,-0.24c-0.003,-0.08 0.02,-0.16 0.041,-0.237c0.042,-0.145 0.085,-0.293 0.094,-0.444c0.006,-0.106 -0.022,-0.213 -0.049,-0.316c-0.011,-0.038 -0.038,-0.07 -0.064,-0.1c-0.025,-0.029 -0.051,-0.06 -0.067,-0.096c-0.029,-0.068 -0.048,-0.14 -0.063,-0.212c-0.027,-0.124 -0.044,-0.249 -0.061,-0.374c0.033,-0.04 0.069,-0.082 0.086,-0.132c0.035,-0.101 -0.04,-0.161 -0.142,-0.167c-0.161,-0.009 -0.252,0.07 -0.331,0.197c-0.045,0.072 -0.075,0.153 -0.104,0.233c0,0 0.084,0.45 0.034,0.667c-0.003,0.015 -0.033,0.006 -0.048,0.001c-0.659,-0.425 -0.906,-0.505 -0.906,-0.505c-0.052,-0.116 -0.193,-0.165 -0.29,-0.247c-0.137,-0.117 -0.274,-0.234 -0.411,-0.351c-0.078,-0.103 -0.156,-0.208 -0.252,-0.294c-0.068,-0.061 -0.164,-0.055 -0.238,-0.019c-0.04,0.02 -0.075,0.05 -0.108,0.08l-0.187,-0.22c-0.229,-0.224 -0.416,0.019 -0.416,0.019c-0.168,-0.224 -0.327,-0.033 -0.327,-0.033c-0.104,0.15 0.108,0.565 0.108,0.565c-0.243,0.085 0,0.444 0,0.444c0.004,0.095 0.014,0.189 0.037,0.281c0.033,0.129 0.082,0.254 0.131,0.378c0.065,0.087 0.131,0.175 0.188,0.268c0.08,0.132 0.155,0.267 0.223,0.405c0.039,0.078 0.069,0.161 0.098,0.243c0.113,0.127 0.227,0.255 0.346,0.377c0.277,0.285 0.612,0.399 0.897,0.664c0.094,0.087 0.182,0.179 0.271,0.272l1.47,1.545c1.072,1.619 2.542,2.791 2.542,2.791c0.224,0.473 0.61,0.722 0.61,0.722l0.486,0.374c2.878,2.666 5.233,3.227 5.233,3.227c0.374,1.034 -0.174,2.33 -0.174,2.33c-0.462,0.913 -0.746,1.94 -0.452,2.951c0.123,0.423 0.375,0.799 0.527,1.214c0.077,0.211 0.138,0.428 0.199,0.644c0.174,1.072 1.053,3.121 1.053,3.121l0.137,0.293c-0.124,0.748 0.137,0.804 0.137,0.804c0.005,0.201 0.095,0.144 0.218,0.299c0.045,0.057 0.025,0.218 0.025,0.218c-0.081,0.299 0.031,0.423 0.031,0.423c0.021,0.012 0.045,0.026 0.054,0.049c0.031,0.084 0.015,0.249 0.032,0.33c0.007,0.029 0.026,0.054 0.045,0.077l0.106,0.361c-0.056,0.211 0.099,0.398 0.099,0.398l-0.006,0.362c-0.174,0.236 -0.124,0.629 -0.124,0.629c-0.017,0.031 -0.035,0.067 -0.032,0.102c0.008,0.085 0.036,0.166 0.063,0.247c0.025,0.074 0.075,0.224 0.075,0.224c-0.281,0.473 -0.025,0.698 -0.025,0.698l-0.038,0.074l0.007,0.213c-0.349,0.66 -0.137,0.635 -0.137,0.635l-0.181,0.262c-0.349,0.722 -0.193,0.616 -0.193,0.616c-0.337,0.872 -0.268,0.966 -0.268,0.966c-0.455,2.884 -0.548,3.314 -0.548,3.314c-0.002,0.164 -0.004,0.329 -0.024,0.492c-0.038,0.297 -0.095,0.591 -0.151,0.885c-0.04,0.212 -0.101,0.419 -0.137,0.632c-0.014,0.079 -0.013,0.16 -0.012,0.24c0.021,0.449 0.042,0.898 0.081,1.346c0.014,0.159 0.038,0.318 0.077,0.473c0.025,0.096 0.062,0.19 0.111,0.276c0.036,0.062 0.09,0.112 0.142,0.16c0.057,0.094 0.115,0.188 0.174,0.281c0.066,0.102 0.128,0.206 0.2,0.303c0.042,0.059 0.093,0.111 0.143,0.164l0.48,0.529c0.373,0.879 3.719,3.832 3.719,3.832l2.798,2.513c-0.062,0.167 -0.124,0.334 -0.17,0.505c-0.055,0.202 -0.1,0.407 -0.132,0.614c-0.096,0.637 -0.126,1.246 -0.078,1.892c0.193,2.562 1.267,5.123 2.892,7.105c1.302,1.588 3.319,3.041 5.467,2.94c0.659,-0.032 1.292,-0.18 1.834,-0.571c0.176,-0.127 0.333,-0.279 0.483,-0.436c0.164,-0.171 0.31,-0.359 0.456,-0.546c1.65,-2.896 0.224,-6.559 0.224,-6.559c-1.57,-4.934 -5.397,-6.691 -5.397,-6.691l-0.49,-1.776l-0.052,-0.07c-0.022,-0.028 -0.045,-0.058 -0.078,-0.073c-0.094,-0.041 -0.193,-0.083 -0.296,-0.09c-0.109,-0.007 -0.219,0.021 -0.325,0.049c-0.042,0.011 -0.076,0.04 -0.109,0.068l-0.252,0.168l-0.206,-0.925l-0.177,-0.416l-2.461,-9.42c0.167,-0.035 0.223,-0.241 0.193,-0.386c-0.044,-0.209 -0.109,-0.413 -0.175,-0.617l0.325,-0.18c0.112,0.019 1.401,1.246 1.401,1.246c1.267,1.573 2.899,3.035 4.606,4.118c0.649,0.412 0.655,0.391 1.253,0.867c0.305,0.243 0.603,0.495 0.902,0.746c0.935,1.121 4.522,3.037 4.522,3.037c0.487,0.226 0.97,0.601 1.323,1.006c0.138,0.158 0.09,0.176 0.159,0.381c0.009,0.028 0.03,0.052 0.051,0.075c0.032,0.145 0.485,0.537 0.485,0.537c1.827,1.421 2.04,1.69 2.04,1.69c0.392,0.301 0.87,0.638 1.395,0.596c0.099,-0.008 0.309,-0.087 0.408,-0.166c0.622,-0.498 0.071,-2.225 -0.095,-2.523l-0.001,0.001l0,0Z" style="fill-rule:nonzero;"/><path d="M236.28,207.78l-0.162,-3.477" style="fill:none;stroke:#000;stroke-width:0.05px;"/><path d="M237.88,208.938l-0.499,-4.572" style="fill:none;stroke:#000;stroke-width:0.05px;"/><path d="M240.75,209.026l-3.377,-5.009" style="fill:none;stroke:#000;stroke-width:0.05px;"/><path d="M241.74,207.069l-2.616,-2.766" style="fill:none;stroke:#000;stroke-width:0.05px;"/><path d="M241.87,205.338l-1.436,-1.321" style="fill:none;stroke:#000;stroke-width:0.05px;"/><path d="M239.46,200.042l-0.193,1.994" style="fill:none;stroke:#000;stroke-width:0.05px;"/><path d="M240.55,201.537l-1.807,0.424" style="fill:none;stroke:#000;stroke-width:0.05px;"/><path d="M240.03,200.759l-1.034,1.426" style="fill:none;stroke:#000;stroke-width:0.05px;"/><path d="M238.32,201.849l-2.043,-1.607" style="fill:none;stroke:#000;stroke-width:0.05px;"/><path d="M236.48,200.117l1.396,2.891" style="fill:none;stroke:#000;stroke-width:0.05px;"/><path d="M238.66,199.158l-2.461,3.999" style="fill:none;stroke:#000;stroke-width:0.05px;"/><path d="M236.03,201.749l2.292,0.374" style="fill:none;stroke:#000;stroke-width:0.05px;"/><path d="M241.74,204.578l-5.258,0.099" style="fill:none;stroke:#000;stroke-width:0.05px;"/><path d="M241.51,207.942l-5.034,-3.364" style="fill:none;stroke:#000;stroke-width:0.05px;"/><path d="M239.37,209.312l-2.95,-4.946" style="fill:none;stroke:#000;stroke-width:0.05px;"/><path d="M238.75,209.25c-0.017,-0.166 0.249,-4.884 0.249,-4.884" style="fill:none;stroke:#000;stroke-width:0.05px;"/><path d="M240.19,209.312l-1.757,-5.183" style="fill:none;stroke:#000;stroke-width:0.05px;"/><path d="M241.87,206.347l-3.068,-1.869" style="fill:none;stroke:#000;stroke-width:0.05px;"/><path d="M241.15,208.49l-1.78,-4.473" style="fill:none;stroke:#000;stroke-width:0.05px;"/><path d="M238.51,204.129l-2.803,2.94" style="fill:none;stroke:#000;stroke-width:0.05px;"/><path d="M237.56,203.008l-1.856,-1.446" style="fill:none;stroke:#000;stroke-width:0.05px;"/><path d="M236.63,197.881l1.607,3.438" style="fill:none;stroke:#000;stroke-width:0.05px;"/><path d="M237.3,203.157c-0.083,-0.118 -0.125,-5.389 -0.125,-5.389" style="fill:none;stroke:#000;stroke-width:0.05px;"/><path d="M234.62,205.599l1.495,-1.121" style="fill:none;stroke:#000;stroke-width:0.05px;"/><path d="M229.83,157.353c0.001,0.852 -0.097,1.425 -0.047,1.845c0.074,0.617 0.134,1.202 0.257,1.542c0.077,0.212 0.145,1.028 -0.234,1.122c-0.012,0.003 -0.354,0.261 -0.384,0.07c-0.049,-0.317 -0.592,-0.799 -0.737,-0.981c-0.529,-0.666 -0.724,-2.243 -0.724,-2.243c0,0 1.867,-2.538 1.869,-1.355Z"/></g></g></svg>