<?xml version="1.0" encoding="UTF-8" standalone="no"?><!DOCTYPE svg PUBLIC "-//W3C//DTD SVG 1.1//EN" "http://www.w3.org/Graphics/SVG/1.1/DTD/svg11.dtd"><svg width="100%" height="100%" viewBox="0 0 2631 2630" version="1.1" xmlns="http://www.w3.org/2000/svg" xmlns:xlink="http://www.w3.org/1999/xlink" xml:space="preserve" xmlns:serif="http://www.serif.com/" style="fill-rule:evenodd;clip-rule:evenodd;stroke-miterlimit:10;"><rect id="Seite-1" serif:id="Seite 1" x="0.389" y="0" width="2630" height="2630" style="fill:none;"/><g id="Layer-3" serif:id="Layer 3"><path d="M488.225,1723.72l422.92,-1723.72l1229.43,1386.88l-511.751,1211.51l-1140.6,-874.674Z" style="fill:#d12727;fill-rule:nonzero;"/><path d="M1744.17,221.28l-1156.62,724.088l124.952,1143.81l1313.61,313.985l-281.946,-2181.88Z" style="fill:#fcbf49;fill-rule:nonzero;"/><path d="M1936,2598.63c0,17.328 -261.482,31.374 -584.035,31.374c-322.552,0 -584.034,-14.046 -584.034,-31.374c0,-17.328 261.482,-31.373 584.034,-31.373c322.553,0 584.035,14.045 584.035,31.373" style="fill-rule:nonzero;"/><g id="Layer-2" serif:id="Layer 2"><path d="M1412.38,1917.27l1.943,20.779c2.215,6.373 4.436,12.76 6.12,19.293c0.76,2.951 1.189,6.018 1.188,9.065c0,3.009 -4.12,8.031 -4.12,8.031l-8.062,5.133c0,0 -16.991,5.368 -21.619,12.234c-1.733,2.569 -0.627,9.276 -0.627,9.276l1.961,3.903c-5.369,1.961 -13.926,6.599 -13.926,6.599c-8.347,-12.055 -16.697,-24.113 -24.682,-36.41c-4.175,-6.429 -8.179,-12.983 -11.782,-19.749c-1.7,-3.191 -2.898,-6.632 -4.087,-10.046c-12.716,-43.5 -54.971,-85.279 -54.971,-85.279c-61.092,-64.738 -90.41,-82.091 -90.41,-82.091l-18.067,-16.365l1.209,-13.431c4.892,-10.259 12.46,-32.983 12.46,-32.983l4.16,-16.858l58.398,-98.216c6.974,-14.671 13.951,-29.351 21.494,-43.739c6.468,-12.339 13.498,-24.378 20.522,-36.409l8.558,-18.562c1.357,8.889 2.728,17.869 5.607,26.388c1.145,3.389 8.74,6.228 8.74,6.228l99.993,383.209m55.705,436.364c0,0 15.63,8.3 31.26,-6.359c0,0 37.638,2.932 30.784,-28.09l20.708,-14.918l8.611,6.854l1.96,14.166c2.696,4.633 5.437,9.344 9.101,13.256c2.553,2.726 5.834,4.809 9.244,6.331c8.11,3.619 18.238,-10.907 20.914,-14.291c0.492,-0.621 1.117,-2.066 0.376,-2.348c3.523,0.581 7.141,0.202 10.701,0.476c1.598,0.124 4.398,1.945 4.398,1.945c0,0 3.674,12.125 7.806,10.626c18.707,-6.79 37.093,-14.447 55.466,-22.097c0,0 32.616,94.787 -0.367,158.921c0,0 -8.795,16.491 -29.318,38.48c0,0 -115.44,60.102 -240.775,-159.049c0,0 5.131,0.733 29.501,-13.377c0,0 13.505,16.803 29.63,9.474m44.582,-256.296l2.382,2.014l41.687,142.376l-5.351,7.568c0,0 -10.499,0.989 -10.499,16.127l-39.58,27.119c0,0 -4.636,-3.41 -12.46,-2.934l-19.423,-91.489c0,0 33.349,-26.753 36.281,-57.538c0.018,-1.554 0.037,-3.195 -0.566,-4.627c-1.998,-4.746 -3.734,-9.841 -7.149,-13.697c-11.31,-12.773 -40.464,-37.457 -56.419,-44.709l-2.327,-5.863c0,0 38.059,0.366 73.424,25.653m70.492,54.237c-0.754,2.824 -1.514,5.672 -1.805,8.581c-0.365,3.639 -1.085,7.433 -0.156,10.97c0.466,1.775 5.371,1.21 5.371,1.21c0,0 3.919,-0.97 5.623,-12.46c0,0 42.019,45.204 60.343,91.144c0,0 -6.599,-2.201 -26.865,7.073c-1.14,-4.297 -2.301,-8.677 -4.43,-12.58c-1.68,-3.081 -4.165,-5.723 -6.81,-8.03c-3.222,-2.81 -7.131,-2.414 -11.005,-2.35c-4.753,0.08 -9.515,0.87 -14.254,0.485c-0.64,-0.052 -0.789,-1.077 -0.882,-1.712l-31.553,-106.702c0,0 21.53,17.776 26.423,24.371m504.417,-213.348c-20.134,-36.063 -38.974,-36.418 -60.1,-55.661c-3.415,-3.111 -7.322,-5.657 -11.223,-8.131c-1.141,-0.723 -2.494,-1.066 -3.803,-1.398c-10.261,-11.175 -25.103,-10.809 -25.103,-10.809c-4.409,-2.617 -8.88,-5.27 -12.667,-8.727c-6.909,-6.307 -13.256,-13.24 -19.26,-20.416c-10.741,-12.84 -20.497,-26.475 -30.924,-39.571c-30.225,-37.964 -39.261,-50.597 -72.5,-83.351c-11.271,-11.106 -23.132,-21.603 -34.982,-32.09c-13.812,-14.135 -27.629,-28.278 -41.94,-41.908c-11.016,-10.493 -22.075,-21.005 -34.013,-30.436c-20.784,-16.419 -23.037,-12.486 -44.975,-26.933c-6.11,-4.023 -11.667,-8.862 -17.053,-13.812c-6.075,-5.582 -11.679,-11.662 -17.27,-17.729c-5.934,-6.851 -11.874,-13.709 -17.408,-20.887c-8.459,-10.971 -15.962,-22.665 -24.554,-33.533c-24.685,-31.226 -49.969,-61.974 -75.251,-92.719c-2.974,-2.995 -5.988,-6.029 -8.314,-9.552c-4.119,-6.238 -7.408,-12.989 -10.926,-19.585c-5.416,-10.157 -10.189,-20.659 -15.873,-30.669c-4.038,-7.11 -8.655,-13.88 -13.262,-20.636l0,-4.764c-2.863,-15.1 -9.77,-14.498 -15.575,-26.203c-1.369,-2.76 -1.782,-5.926 -2.18,-8.981l-9.73,-17.039c0,-4.949 -4.581,-14.476 -4.581,-14.476c-4.765,-4.398 -6.597,-10.629 -6.597,-10.629c-2.601,-7.802 -4.018,-6.693 -9.162,-13.192c-2.745,-3.468 -5.223,-7.143 -7.696,-10.811c-14.292,-30.053 -15.942,-27.304 -15.942,-27.304c-2.084,-1.653 -4.192,-3.325 -5.932,-5.336c-5.225,-6.042 -8.83,-13.357 -13.972,-19.469c-2.53,-3.008 -5.43,-5.691 -8.314,-8.36c-6.963,-14.477 -22.905,-19.24 -22.905,-19.24c-0.721,-0.524 -1.504,-1.093 -1.878,-1.901c-2.849,-6.148 -0.99,-6.95 -5.681,-12.048c-1.159,-1.26 -2.796,-2.011 -4.352,-2.725c-0.241,-0.948 -0.521,-2.043 -0.114,-2.932c0.321,-0.703 4.314,-3.758 3.708,-5.795c-1.247,-4.183 -7.808,-10.513 -7.808,-10.513c1.832,-24.554 -23.638,-29.87 -23.638,-29.87c1.466,-17.772 -6.78,-23.453 -6.78,-23.453c-1.466,-7.698 -6.78,-13.743 -6.78,-13.743l-0.732,-20.889l-1.466,-9.162l-6.414,-15.21c4.032,-12.644 -3.298,-21.073 -3.298,-21.073c6.413,-20.889 2.016,-21.62 2.016,-21.62c3.664,-10.628 -2.383,-18.141 -2.383,-18.141l-1.099,-8.797c3.495,-6.775 7.004,-13.578 9.712,-20.704c1.445,-3.804 2.148,-7.876 2.68,-11.911c1.717,-13.022 3.811,-28.117 3.796,-41.483c-0.017,-14.993 -2.991,-27.134 -1.54,-42.154c0.563,-5.831 2.038,-11.577 3.859,-17.145c1.803,-5.511 4.392,-10.745 6.963,-15.942c25.287,-41.777 6.963,-106.643 6.963,-106.643c1.833,-21.624 -6.23,-46.543 -6.23,-46.543c-0.503,-7.566 -1.006,-15.14 -1.099,-22.723c-0.23,-18.716 -0.356,-67.052 1.494,-90.085c0.507,-6.307 1.293,-12.64 2.903,-18.759c0.999,-3.793 3.46,-7.052 4.856,-10.718c0.568,-1.489 0.79,-3.094 1.008,-4.672c-0.246,-1.708 -0.504,-3.501 -0.092,-5.177c1.56,-6.335 4.457,-12.295 5.956,-18.644c2.026,-8.585 3.714,-17.284 4.598,-26.06c3.891,-38.623 1.492,-75.598 2.731,-114.667c0.312,-9.824 1.681,-18.034 7.742,-25.837c2.196,-2.827 5.142,-5.013 8.017,-7.146c14.002,-8.73 28.025,-17.473 41.412,-27.121c4.275,-3.082 7.869,-7.042 11.406,-10.948c2.348,-2.592 3.788,-5.928 6.185,-8.475c2.026,-2.154 4.514,-3.839 6.963,-5.498c1.776,-1.931 3.58,-3.893 5.726,-5.404c7.373,-5.194 12.895,-5.777 18.873,-12.781c2.054,-2.406 7.748,-15.848 8.75,-18.094c2.072,-4.645 4.151,-9.286 6.23,-13.928c1.266,-6.692 1.273,-20.278 -10.682,-11.531c-2.884,2.11 -5.595,4.62 -7.548,7.613c-2.618,4.012 -4.302,8.584 -5.957,13.08l-7.898,3.591c0.018,2.238 -0.165,0.074 -0.165,0.074l0.165,-0.074c0,-0.952 -0.055,-2.711 -0.165,-5.788c-0.366,-10.261 -19.423,-31.517 -19.423,-31.517c-1.09,-2.136 -2.214,-4.337 -3.894,-6.048c-3.028,-3.083 -7.18,-3.901 -10.765,-0.55c-4.609,4.307 -3.96,9.744 -2.153,15.025c1.147,3.353 2.944,6.46 4.718,9.528c-9.583,0 -21.585,17.538 -22.318,18.636c3.785,-8.29 -7.367,-26.33 -7.367,-26.33l-2.565,-15.027c-0.641,-10.891 -12.563,-21.875 -18.278,-6c-3.708,10.3 4.003,23.083 6.184,31.653c1.034,4.063 1.371,8.283 1.705,12.462c0.129,2.947 0.5,11.352 -0.972,8.796c-5.127,-8.91 -7.907,-19.038 -10.627,-28.952c-0.062,-1.893 -0.125,-3.841 -0.733,-5.635c-1.006,-2.969 -3.711,-5.552 -7.33,-4.262c-5.028,1.794 -5.392,6.968 -5.314,11.315c0.06,3.341 0.674,6.656 1.283,9.941l5.497,34.451c-50.94,18.324 -45.993,55.336 -45.993,55.336l-1.649,2.695l-13.926,51.912c-1.915,9.014 -3.831,18.037 -6.23,26.935c-9.982,37.023 -21.975,70.114 -27.12,107.926c-1.12,8.235 -2.165,16.49 -3.756,24.647c-0.37,1.898 -1.249,3.673 -2.107,5.406c-14.952,28.73 -15.996,56.512 -17.591,88.193c-1.537,30.529 -2.72,61.075 -3.903,91.619l-7.586,8.558c-18.067,2.437 -25.892,-26.882 -25.892,-26.882c-14.897,-31.993 -10.499,-47.387 -10.499,-47.387c14.186,-1.232 17.991,-16.545 23.326,-26.513c11.759,-21.97 21.427,-45.108 18.996,-70.231c-0.143,-1.483 -0.325,-23.593 -0.764,-26.337c-0.362,-2.263 -1.801,-4.223 -2.474,-6.413c-0.887,-2.889 -1.543,-5.844 -2.198,-8.794c-1.825,-5.038 -3.681,-10.164 -6.597,-14.659c-10.475,-16.15 -26.417,-40.564 -43.886,-50.269c-6.134,-3.409 -15.647,-4.423 -22.263,-6.628c-2.477,-0.825 -4.82,-2.02 -7.146,-3.205c-2.814,0.01 -5.656,0.02 -8.429,-0.458c-4.343,-0.749 -8.573,-2.056 -12.827,-3.207c-14.235,-3.852 -16.215,-5.949 -32.25,-5.864c-7.177,0.038 -14.2,3.566 -20.156,7.055c-3.932,2.303 -7.652,4.957 -11.361,7.604l-21.75,9.529c-15.461,8.361 -24.329,17.96 -31.886,33.145c-3.73,7.495 -4.012,11.748 -4.634,18.894c-0.202,2.319 -0.376,4.641 -0.55,6.962l-4.031,26.021c-2.128,12.352 -4.259,24.724 -5.497,37.196c-0.357,3.594 0.194,7.239 0.733,10.811c2.226,3.639 4.463,7.295 6.23,11.178c1.361,2.988 3.654,6.107 3.115,9.347c-3.701,22.225 -5.68,31.333 -5.68,31.333c0.183,28.95 11.361,50.939 11.361,50.939c-100.782,-6.229 -159.235,-79.709 -159.235,-79.709c-5.023,-7.678 -10.079,-15.407 -16.125,-22.309c-6.733,-7.688 -14.036,-14.963 -22.063,-21.29c-16.797,-13.239 -79.484,-50.549 -89.437,-57.135c-6.154,-4.072 -11.751,-8.945 -17.316,-13.79c0,0 -48.879,-35.539 -61.943,-61.55c-1.445,-2.876 -2.075,-6.191 -2.168,-9.408c-0.091,-3.145 0.781,-6.268 1.626,-9.299c1.646,-5.696 3.32,-11.488 3.665,-17.407c0.244,-4.181 -0.833,-8.372 -1.924,-12.415c-0.4,-1.485 -1.47,-2.728 -2.473,-3.893c-1.002,-1.165 -2.035,-2.367 -2.635,-3.78c-1.13,-2.664 -1.895,-5.484 -2.496,-8.314c-1.029,-4.843 -1.706,-9.755 -2.382,-14.659c1.317,-1.582 2.691,-3.232 3.367,-5.177c1.382,-3.978 -1.55,-6.321 -5.566,-6.551c-6.307,-0.359 -9.871,2.746 -12.987,7.741c-1.76,2.822 -2.915,5.991 -4.054,9.116c0,0 3.263,17.645 1.328,26.158c-0.139,0.611 -1.282,0.24 -1.878,0.046c-25.837,-16.674 -35.548,-19.791 -35.548,-19.791c-2.025,-4.552 -7.571,-6.476 -11.361,-9.71c-5.372,-4.584 -10.749,-9.163 -16.125,-13.743c-3.041,-4.055 -6.121,-8.162 -9.895,-11.546c-2.647,-2.373 -6.42,-2.143 -9.322,-0.731c-1.577,0.767 -2.923,1.955 -4.238,3.115l-7.329,-8.614c-8.979,-8.793 -16.308,0.733 -16.308,0.733c-6.597,-8.793 -12.845,-1.281 -12.845,-1.281c-4.05,5.862 4.232,22.172 4.232,22.172c-9.528,3.299 0,17.408 0,17.408c0.154,3.694 0.552,7.412 1.466,10.994c1.295,5.072 3.218,9.969 5.131,14.841c2.568,3.425 5.143,6.86 7.375,10.513c3.151,5.156 6.066,10.462 8.75,15.875c1.522,3.068 2.687,6.304 3.848,9.526c4.443,5.002 8.889,10.008 13.56,14.798c10.887,11.164 24.021,15.656 35.181,26.02c3.68,3.417 7.156,7.047 10.628,10.674l57.665,60.595c42.017,63.513 99.682,109.449 99.682,109.449c8.796,18.564 23.931,28.348 23.931,28.348l19.057,14.66c112.875,104.555 205.227,126.544 205.227,126.544c14.659,40.567 -6.835,91.381 -6.835,91.381c-18.133,35.805 -29.236,76.076 -17.728,115.715c4.823,16.613 14.704,31.366 20.662,47.607c3.039,8.282 5.433,16.791 7.822,25.284c6.835,42.034 41.284,122.405 41.284,122.405l5.369,11.489c-4.874,29.318 5.387,31.515 5.387,31.515c0.202,7.886 3.713,5.662 8.539,11.727c1.788,2.247 0.989,8.557 0.989,8.557c-3.188,11.729 1.21,16.602 1.21,16.602c0.823,0.468 1.779,1.013 2.112,1.899c1.23,3.284 0.585,9.781 1.28,12.952c0.247,1.128 1.018,2.095 1.738,2.998l4.16,14.164c-2.199,8.299 3.903,15.629 3.903,15.629l-0.238,14.184c-6.835,9.272 -4.893,24.664 -4.893,24.664c-0.638,1.242 -1.345,2.616 -1.221,4.006c0.298,3.316 1.378,6.53 2.449,9.682c0.994,2.926 2.932,8.796 2.932,8.796c-10.995,18.56 -0.971,27.355 -0.971,27.355l-1.466,2.934l0.238,8.319c-13.688,25.891 -5.369,24.918 -5.369,24.918l-7.091,10.262c-13.688,28.33 -7.568,24.187 -7.568,24.187c-13.193,34.193 -10.518,37.857 -10.518,37.857c-17.829,113.134 -21.494,129.992 -21.494,129.992c-0.067,6.439 -0.135,12.906 -0.944,19.295c-1.473,11.635 -3.703,23.165 -5.891,34.687c-1.578,8.312 -3.976,16.461 -5.405,24.801c-0.531,3.095 -0.494,6.269 -0.458,9.409c0.819,17.604 1.638,35.217 3.17,52.773c0.545,6.246 1.522,12.48 3.052,18.56c0.948,3.769 2.393,7.457 4.339,10.821c1.403,2.423 3.513,4.386 5.564,6.294c2.254,3.679 4.509,7.359 6.835,10.994c2.558,4 5.007,8.081 7.815,11.91c1.68,2.292 3.653,4.359 5.616,6.414l18.818,20.761c14.66,34.448 145.858,150.255 145.858,150.255l109.76,98.582c-2.441,6.528 -4.889,13.074 -6.705,19.802c-2.139,7.92 -3.918,15.957 -5.142,24.069c-3.766,24.968 -4.961,48.869 -3.059,74.197c7.547,100.501 49.662,200.907 113.409,278.669c51.035,62.254 130.139,119.257 214.409,115.266c25.834,-1.224 50.648,-7.038 71.923,-22.372c6.899,-4.973 13.055,-10.957 18.931,-17.104c6.419,-6.717 12.152,-14.067 17.866,-21.394c64.738,-113.607 8.795,-257.264 8.795,-257.264c-61.568,-193.502 -211.64,-262.398 -211.64,-262.398l-19.24,-69.631l-2.016,-2.748c-0.858,-1.105 -1.787,-2.302 -3.069,-2.863c-3.702,-1.62 -7.558,-3.285 -11.59,-3.55c-4.3,-0.283 -8.619,0.828 -12.781,1.946c-1.612,0.434 -2.976,1.567 -4.26,2.634l-9.895,6.595l-8.062,-36.279l-6.964,-16.31l-96.511,-369.407c6.562,-1.386 8.775,-9.467 7.586,-15.154c-1.715,-8.202 -4.289,-16.21 -6.853,-24.187l12.716,-7.075c4.398,0.735 54.972,48.853 54.972,48.853c49.694,61.722 113.678,119.063 180.613,161.505c25.48,16.157 25.72,15.342 49.135,34.015c11.968,9.543 23.682,19.402 35.393,29.258c36.648,43.977 177.344,119.091 177.344,119.091c19.112,8.863 38.035,23.568 51.871,39.45c5.425,6.228 3.56,6.912 6.238,14.947c0.376,1.127 1.206,2.065 1.993,2.954c1.283,5.683 19.057,21.073 19.057,21.073c71.646,55.706 79.976,66.281 79.976,66.281c15.385,11.781 34.14,25.02 54.721,23.371c3.874,-0.31 12.124,-3.439 15.986,-6.529c24.417,-19.542 2.782,-87.266 -3.728,-98.925Z" style="fill-rule:nonzero;"/><g><path d="M1479.81,2467.97l-6.352,-136.329" style="fill:none;fill-rule:nonzero;stroke:#000;stroke-width:2px;"/><path d="M1542.36,2513.41l-19.546,-179.328" style="fill:none;fill-rule:nonzero;stroke:#000;stroke-width:2px;"/><path d="M1655.23,2516.84l-132.421,-196.432" style="fill:none;fill-rule:nonzero;stroke:#000;stroke-width:2px;"/><path d="M1693.81,2440.12l-102.586,-108.477" style="fill:none;fill-rule:nonzero;stroke:#000;stroke-width:2px;"/><path d="M1698.84,2372.2l-56.327,-51.796" style="fill:none;fill-rule:nonzero;stroke:#000;stroke-width:2px;"/><path d="M1604.64,2164.53l-7.555,78.181" style="fill:none;fill-rule:nonzero;stroke:#000;stroke-width:2px;"/><path d="M1647.41,2223.16l-70.853,16.612" style="fill:none;fill-rule:nonzero;stroke:#000;stroke-width:2px;"/><path d="M1626.89,2192.65l-40.558,55.922" style="fill:none;fill-rule:nonzero;stroke:#000;stroke-width:2px;"/><path d="M1559.95,2235.38l-80.136,-63.032" style="fill:none;fill-rule:nonzero;stroke:#000;stroke-width:2px;"/><path d="M1487.63,2167.46l54.726,113.364" style="fill:none;fill-rule:nonzero;stroke:#000;stroke-width:2px;"/><path d="M1573.14,2129.84l-96.506,156.852" style="fill:none;fill-rule:nonzero;stroke:#000;stroke-width:2px;"/><path d="M1470.04,2231.47l89.91,14.659" style="fill:none;fill-rule:nonzero;stroke:#000;stroke-width:2px;"/><path d="M1693.81,2342.39l-206.178,3.909" style="fill:none;fill-rule:nonzero;stroke:#000;stroke-width:2px;"/><path d="M1685.04,2474.32l-197.409,-131.932" style="fill:none;fill-rule:nonzero;stroke:#000;stroke-width:2px;"/><path d="M1600.86,2528.07l-115.675,-193.987" style="fill:none;fill-rule:nonzero;stroke:#000;stroke-width:2px;"/><path d="M1576.56,2525.63c-0.649,-6.509 9.772,-191.545 9.772,-191.545" style="fill:none;fill-rule:nonzero;stroke:#000;stroke-width:2px;"/><path d="M1633.24,2528.07l-68.899,-203.272" style="fill:none;fill-rule:nonzero;stroke:#000;stroke-width:2px;"/><path d="M1698.84,2411.78l-120.327,-73.296" style="fill:none;fill-rule:nonzero;stroke:#000;stroke-width:2px;"/><path d="M1670.68,2495.82l-69.817,-175.42" style="fill:none;fill-rule:nonzero;stroke:#000;stroke-width:2px;"/><path d="M1567.28,2324.8l-109.943,115.317" style="fill:none;fill-rule:nonzero;stroke:#000;stroke-width:2px;"/><path d="M1530.14,2280.82l-72.806,-56.683" style="fill:none;fill-rule:nonzero;stroke:#000;stroke-width:2px;"/><path d="M1493.74,2079.75l63.003,134.864" style="fill:none;fill-rule:nonzero;stroke:#000;stroke-width:2px;"/><path d="M1519.88,2286.69c-3.245,-4.641 -4.887,-211.334 -4.887,-211.334" style="fill:none;fill-rule:nonzero;stroke:#000;stroke-width:2px;"/><path d="M1414.82,2382.46l58.636,-43.977" style="fill:none;fill-rule:nonzero;stroke:#000;stroke-width:2px;"/></g><g id="Layer1"><path d="M1227,490.339c0.046,33.403 -3.809,55.901 -1.832,72.379c2.902,24.196 5.246,47.138 10.078,60.469c3.008,8.299 5.671,40.307 -9.162,43.977c-0.472,0.117 -13.914,10.257 -15.075,2.75c-1.922,-12.439 -23.203,-31.316 -28.902,-38.481c-20.767,-26.112 -28.402,-87.955 -28.402,-87.955c0,0 73.231,-99.522 73.295,-53.139Z"/></g></g></g></svg>