<?xml version="1.0" encoding="UTF-8" standalone="no"?><!DOCTYPE svg PUBLIC "-//W3C//DTD SVG 1.1//EN" "http://www.w3.org/Graphics/SVG/1.1/DTD/svg11.dtd"><svg width="100%" height="100%" viewBox="0 0 2628 2630" version="1.1" xmlns="http://www.w3.org/2000/svg" xmlns:xlink="http://www.w3.org/1999/xlink" xml:space="preserve" style="fill-rule:evenodd;clip-rule:evenodd;stroke-linejoin:round;stroke-miterlimit:1.41421;"><rect id="Seite-1" x="0" y="0" width="2628" height="2630" style="fill:none;"/><clipPath id="_clip1"><rect id="Seite-11" x="0" y="0" width="2628" height="2630"/></clipPath><g clip-path="url(#_clip1)"><g id="Layer-3"><path d="M499.461,1699.44l416.963,-1699.44l1212.12,1367.35l-504.543,1194.44l-1124.54,-862.355Z" style="fill:#d12727;fill-rule:nonzero;"/><path d="M1737.71,218.163l-1140.33,713.89l123.192,1127.69l1295.11,309.563l-277.974,-2151.15Z" style="fill:#fcbf49;fill-rule:nonzero;"/><path d="M1535.55,2255.59c12.634,157.939 -107.401,221.116 -107.401,221.116l-6.316,-9.476l0,-6.32l-6.318,-9.474c-9.476,-6.318 -9.476,6.316 -9.476,6.316l6.316,12.636l3.16,0l6.318,12.636c-18.954,12.635 -202.164,107.399 -315.881,-75.811c-113.718,-183.212 37.905,-319.041 37.905,-319.041l101.082,180.054c-15.794,12.634 -3.158,34.745 -3.158,34.745c0,0 -15.794,12.636 -18.954,15.794c-7.075,7.076 -12.634,-3.158 -12.634,-3.158c-28.429,6.316 -22.113,18.952 -22.113,18.952l0,25.271c-18.952,18.952 -12.634,22.111 -6.316,34.747c6.316,12.636 15.792,6.318 15.792,6.318c-3.158,50.541 31.589,31.588 31.589,31.588l3.16,-50.542l63.175,-56.858c69.494,-12.634 50.541,-72.652 50.541,-72.652l60.018,-63.175l15.794,-3.162c28.429,-3.158 22.111,-9.474 22.111,-9.474l0,-18.953c0,-15.794 -12.635,-9.478 -12.635,-9.478l-18.954,3.16c-22.111,-28.43 -41.063,6.318 -41.063,6.318c-47.383,-6.318 -50.541,12.635 -50.541,25.269c0,12.636 6.318,12.636 6.318,12.636l-18.953,15.795l-101.083,-164.26c142.147,-56.857 315.882,50.543 328.517,208.483m-518.076,-840.149c-0.347,2.244 -5.907,37.718 6.349,34.653c0,0 -12.635,88.446 142.147,91.604c0,0 -3.159,186.37 6.318,208.483l-6.318,50.541c0,0 -22.113,12.634 -25.271,22.112c-3.16,9.475 0,25.269 0,25.269l-6.318,6.318l3.158,18.952c0,0 -6.316,28.431 -15.793,31.589l-22.112,-15.794c0,0 -8.182,-10.044 -15.794,-25.271c-3.158,-6.316 -107.399,-183.21 -107.399,-183.21c0,0 6.317,-6.318 0,-15.794c-6.318,-9.477 -18.952,-28.431 -18.952,-28.431c0,0 -9.478,-9.474 -12.636,-3.158l-41.065,-75.811c0,0 60.649,-43.192 113.686,-142.052m66.366,-483.392c53.699,34.747 104.24,53.701 104.24,53.701l28.431,41.063c0,0 9.476,-3.158 0,3.16c-9.478,6.318 -110.559,135.829 -110.559,135.829l-44.223,41.063c41.065,-170.574 22.111,-274.816 22.111,-274.816m22.112,350.628c12.635,-3.159 15.794,-15.795 15.794,-15.795c12.635,-3.158 12.635,-18.952 12.635,-18.952c3.033,0 92.142,-80.077 97.67,-85.034c-21.89,21.985 -28.176,40.811 -28.176,40.811c-15.416,6.159 -118.076,129.669 -123.035,135.607c3.095,-4.707 6.16,-53.479 6.16,-53.479c0,0 3.158,3.16 6.316,9.478c3.16,6.316 3.16,3.158 12.636,-3.159c9.476,-6.319 0,-9.477 0,-9.477m601.753,374.319l-31.588,-88.447c-9.477,-56.859 -15.795,-75.812 -37.907,-116.877c-22.111,-41.063 -28.429,-6.316 -41.063,-3.158c-12.636,3.158 -31.589,15.794 -31.589,15.794c0,0 -22.11,0 -31.588,3.159c-9.477,3.159 -22.111,15.794 -22.111,15.794c0,0 -88.448,-31.589 -107.4,-34.747c-18.953,-3.158 -85.288,-34.747 -85.288,-34.747l52.121,-52.121c44.223,-22.11 135.829,-107.398 142.147,-116.874c6.316,-9.477 41.063,-28.429 41.063,-28.429c15.794,3.158 34.747,-9.478 34.747,-9.478l6.318,-37.905c120.035,-101.082 -56.859,-290.61 -56.859,-290.61c9.476,-15.793 -3.158,-18.953 -3.158,-18.953l-12.635,-3.16l-6.318,-15.792l-15.794,-3.16l-6.318,-28.429l-18.953,-6.316c0,0 -3.158,-12.636 -6.318,-15.795c-3.158,-3.159 -9.476,0 -9.476,0l-3.158,-9.477l-9.476,0l0,-9.477l-9.477,-3.158l-3.159,-6.318c-15.795,-12.634 -44.224,-60.017 -44.224,-60.017c9.477,-145.305 -205.322,-129.511 -205.322,-129.511l0,-31.589c6.318,12.636 15.794,6.318 22.111,-37.905c6.318,-44.223 -6.317,-37.906 -6.317,-37.906c3.159,-12.635 -6.318,-44.223 -6.318,-44.223c-31.587,-63.176 -78.97,-66.334 -94.764,-72.652c-15.794,-6.318 -63.175,-6.318 -94.764,22.111c-31.588,28.43 -15.794,104.242 -18.952,116.876c-3.16,12.636 6.316,50.541 6.316,50.541l0,6.318c0,22.111 15.794,56.858 15.794,56.858c-113.716,44.223 -50.539,240.069 -50.539,240.069l18.952,-3.158c6.317,25.27 6.317,132.669 6.317,132.669c-18.953,44.223 -3.158,180.052 -3.158,217.958c0,37.905 -6.318,126.353 -6.318,126.353l-25.271,44.223l0,3.158c0,18.953 -6.316,28.429 -15.794,47.381c-9.477,18.954 9.478,6.32 9.478,6.32c-75.812,138.987 -240.07,126.351 -240.07,126.351c0,0 -25.27,0 -18.952,34.747c6.316,34.748 28.429,28.429 28.429,28.429l63.175,0l0,-6.317c56.859,0 97.924,-22.112 97.924,-22.112l41.063,75.811c0,0 6.318,-3.158 -3.158,3.159c-9.476,6.318 -6.318,12.636 -6.318,12.636c0,0 12.636,18.954 18.952,31.587c6.318,12.636 18.955,0 18.955,0l107.398,189.529c-6.316,15.795 15.794,28.429 15.794,28.429c0,34.747 25.271,85.288 25.271,85.288c-28.429,22.112 -75.812,82.13 -75.812,82.13c0,0 -88.446,132.669 -41.064,300.085c47.382,167.417 211.64,227.434 211.64,227.434c76.157,31.256 164.707,18.515 224.275,0c24.8,-7.393 48.681,-21.181 72.152,-35.838c-1.152,-0.375 231.928,-141.811 136.329,-412.711c-96.097,-272.309 -363.262,-227.435 -363.262,-227.435l-9.477,-22.113l9.477,-22.11l0,-22.111c0,0 -3.159,-18.954 0,-25.271c3.159,-6.319 0,-22.112 0,-31.588c0,-9.476 15.794,-41.065 15.794,-41.065c0,0 12.634,-47.381 25.27,-82.128c12.636,-34.748 18.953,-129.512 18.953,-129.512l56.859,3.158c94.764,-9.475 151.623,31.59 151.623,31.59c-25.27,15.794 0,25.269 0,25.269c0,0 37.905,0 34.745,6.32c-3.158,6.316 37.907,44.221 37.907,44.221l3.158,-6.316c1.074,0.694 2.717,1.768 4.675,3.158c31.241,22.301 46.751,55.12 49.026,60.017c7.422,16.108 7.833,24.481 17.373,30.009c6.475,3.758 14.972,5.053 20.185,3.128c29.03,-10.646 17.721,-101.051 17.721,-101.051" style="fill:#fff;fill-rule:nonzero;"/><g><path d="M1112.27,2107.13l82.128,53.701" style="fill:#fff;fill-rule:nonzero;"/><path d="M1196.04,2158.32l-3.284,5.022l-82.128,-53.701l3.284,-5.022l82.128,53.701Z" style="fill:#fff;"/></g><g><path d="M1093.32,2145.03l148.463,142.147" style="fill:#fff;fill-rule:nonzero;"/><path d="M1243.86,2285.01l-4.149,4.334l-148.464,-142.147l4.15,-4.334l148.463,142.147Z" style="fill:#fff;"/></g><g><path d="M1074.36,2182.94l170.576,101.082" style="fill:#fff;fill-rule:nonzero;"/><path d="M1246.47,2281.44l-3.059,5.162l-170.575,-101.083l3.059,-5.161l170.575,101.082Z" style="fill:#fff;"/></g><g><path d="M1061.73,2227.16l180.052,9.478" style="fill:#fff;fill-rule:nonzero;"/><path d="M1241.94,2233.64l-0.316,5.992l-180.052,-9.478l0.316,-5.991l180.052,9.477Z" style="fill:#fff;"/></g><g><path d="M1055.41,2268.23l189.528,-25.272" style="fill:#fff;fill-rule:nonzero;"/><path d="M1245.34,2245.93l-189.528,25.272l-0.793,-5.947l189.528,-25.272l0.793,5.947Z" style="fill:#fff;"/></g><g><path d="M1058.57,2309.29l183.212,9.476" style="fill:#fff;fill-rule:nonzero;"/><path d="M1241.94,2315.77l-0.31,5.992l-183.212,-9.476l0.31,-5.992l183.212,9.476Z" style="fill:#fff;"/></g><g><path d="M1248.1,2261.91l-161.1,132.67" style="fill:#fff;fill-rule:nonzero;"/><path d="M1250.01,2264.22l-161.1,132.671l-3.814,-4.632l161.099,-132.67l3.815,4.631Z" style="fill:#fff;"/></g><g><path d="M1244.94,2280.86l-135.829,151.623" style="fill:#fff;fill-rule:nonzero;"/><path d="M1247.17,2282.86l-135.829,151.624l-4.469,-4.004l135.829,-151.623l4.469,4.003Z" style="fill:#fff;"/></g><g><path d="M1203.88,2397.74l-66.335,63.176" style="fill:#fff;fill-rule:nonzero;"/><path d="M1205.94,2399.91l-66.335,63.175l-4.138,-4.345l66.335,-63.175l4.138,4.345Z" style="fill:#fff;"/></g><g><path d="M1323.91,2312.45l-164.257,183.21" style="fill:#fff;fill-rule:nonzero;"/><path d="M1326.14,2314.45l-164.257,183.21l-4.468,-4.005l164.258,-183.21l4.467,4.005Z" style="fill:#fff;"/></g><g><path d="M1061.73,2353.52l138.719,-22.988" style="fill:#fff;fill-rule:nonzero;"/><path d="M1200.94,2333.49l-138.719,22.988l-0.981,-5.919l138.719,-22.988l0.981,5.919Z" style="fill:#fff;"/></g><g><path d="M1218.17,2031.68l9.311,59.29" style="fill:#fff;fill-rule:nonzero;"/><path d="M1230.45,2090.51l-5.927,0.931l-9.312,-59.291l5.928,-0.931l9.311,59.291Z" style="fill:#fff;"/></g><g><path d="M1254.42,2025l72.653,189.529" style="fill:#fff;fill-rule:nonzero;"/><path d="M1329.87,2213.45l-5.602,2.147l-72.654,-189.528l5.603,-2.147l72.653,189.528Z" style="fill:#fff;"/></g><g><path d="M1298.64,2025l22.111,217.957" style="fill:#fff;fill-rule:nonzero;"/><path d="M1323.74,2242.65l-5.97,0.605l-22.11,-217.957l5.969,-0.605l22.111,217.957Z" style="fill:#fff;"/></g><g><path d="M1346.02,2031.32l-60.018,164.259" style="fill:#fff;fill-rule:nonzero;"/><path d="M1348.84,2032.35l-60.017,164.259l-5.635,-2.059l60.017,-164.259l5.635,2.059Z" style="fill:#fff;"/></g><g><path d="M1380.77,2040.79l-94.764,164.257" style="fill:#fff;fill-rule:nonzero;"/><path d="M1383.37,2042.29l-94.764,164.257l-5.198,-2.998l94.765,-164.257l5.197,2.998Z" style="fill:#fff;"/></g><g><path d="M1421.83,2059.75l-41.064,101.082" style="fill:#fff;fill-rule:nonzero;"/><path d="M1424.61,2060.88l-41.065,101.082l-5.559,-2.258l41.065,-101.082l5.559,2.258Z" style="fill:#fff;"/></g><g><path d="M1459.74,2081.86c-3.158,3.158 -56.859,85.288 -56.859,85.288" style="fill:#fff;fill-rule:nonzero;"/><path d="M1461.89,2083.94l-0.012,0.011l-0.011,0.013l-0.027,0.031l-0.033,0.041l-0.044,0.054l-0.051,0.063l-0.055,0.07l-0.137,0.177l-0.155,0.204l-0.175,0.236l-0.194,0.263l-0.212,0.292l-0.23,0.318l-0.246,0.344l-0.261,0.369l-0.278,0.393l-0.293,0.417l-0.307,0.439l-0.322,0.462l-0.336,0.485l-0.35,0.506l-0.363,0.527l-0.376,0.547l-0.389,0.567l-0.401,0.586l-0.839,1.23l-0.884,1.302l-0.928,1.37l-0.968,1.435l-1.007,1.495l-1.043,1.553l-1.077,1.605l-1.108,1.655l-1.137,1.701l-1.163,1.743l-1.188,1.781l-1.209,1.816l-1.228,1.847l-1.245,1.874l-1.259,1.898l-1.272,1.918l-1.281,1.934l-1.288,1.946l-1.293,1.955l-2.592,3.923l-2.583,3.913l-2.554,3.874l-2.507,3.806l-2.441,3.709l-2.355,3.581l-2.25,3.425l-2.127,3.238l-1.983,3.023l-1.822,2.778l-1.641,2.503l-2.662,4.064l-1.71,2.611l-0.603,0.923l-5.021,-3.285l0.604,-0.923l1.71,-2.613l2.664,-4.066l1.641,-2.504l1.823,-2.779l1.984,-3.024l2.128,-3.24l2.252,-3.427l2.356,-3.583l2.441,-3.71l2.509,-3.809l2.556,-3.876l2.584,-3.916l2.594,-3.925l1.294,-1.957l1.29,-1.948l1.282,-1.936l1.273,-1.919l1.261,-1.9l1.246,-1.877l1.23,-1.85l1.211,-1.818l1.189,-1.784l1.165,-1.747l1.14,-1.704l1.11,-1.659l1.08,-1.61l1.046,-1.557l1.011,-1.501l0.973,-1.44l0.932,-1.377l0.89,-1.31l0.844,-1.239l0.406,-0.592l0.392,-0.573l0.381,-0.553l0.367,-0.534l0.355,-0.513l0.342,-0.492l0.328,-0.472l0.315,-0.45l0.3,-0.428l0.287,-0.406l0.272,-0.383l0.259,-0.362l0.243,-0.337l0.229,-0.315l0.215,-0.292l0.2,-0.269l0.188,-0.248l0.172,-0.222l0.086,-0.11l0.082,-0.101l0.08,-0.098l0.081,-0.098l0.079,-0.093l0.084,-0.094l0.091,-0.1l0.066,-0.068l4.313,4.172Z" style="fill:#fff;"/></g><g><path d="M1491.33,2113.45l-69.493,47.381" style="fill:#fff;fill-rule:nonzero;"/><path d="M1493.02,2115.93l-69.493,47.382l-3.38,-4.958l69.493,-47.381l3.38,4.957Z" style="fill:#fff;"/></g><g><path d="M1510.28,2151.35l-75.81,28.428" style="fill:#fff;fill-rule:nonzero;"/><path d="M1511.33,2154.16l-75.81,28.429l-2.106,-5.618l75.81,-28.429l2.106,5.618Z" style="fill:#fff;"/></g><g><path d="M1327.07,2299.82l205.322,-110.556" style="fill:#fff;fill-rule:nonzero;"/><path d="M1533.81,2191.9l-205.322,110.557l-2.844,-5.283l205.322,-110.557l2.844,5.283Z" style="fill:#fff;"/></g><g><path d="M1545.03,2233.48l-230.593,75.812" style="fill:#fff;fill-rule:nonzero;"/><path d="M1545.96,2236.33l-230.593,75.812l-1.874,-5.7l230.593,-75.812l1.874,5.7Z" style="fill:#fff;"/></g><g><path d="M1551.34,2284.02l-217.958,-47.381" style="fill:#fff;fill-rule:nonzero;"/><path d="M1551.98,2281.09l-1.274,5.863l-217.959,-47.381l1.275,-5.864l217.958,47.382Z" style="fill:#fff;"/></g><g><path d="M1545.03,2331.4l-224.275,-82.128" style="fill:#fff;fill-rule:nonzero;"/><path d="M1546.06,2328.59l-2.063,5.634l-224.275,-82.128l2.063,-5.634l224.275,82.128Z" style="fill:#fff;"/></g><g><path d="M1481.85,2451.44l-148.464,-208.483" style="fill:#fff;fill-rule:nonzero;"/><path d="M1484.29,2449.7l-4.887,3.481l-148.464,-208.483l4.888,-3.48l148.463,208.482Z" style="fill:#fff;"/></g><g><path d="M1535.55,2369.31l-236.911,-60.017" style="fill:#fff;fill-rule:nonzero;"/><path d="M1536.29,2366.4l-1.473,5.816l-236.911,-60.017l1.473,-5.816l236.911,60.017Z" style="fill:#fff;"/></g><g><path d="M1333.39,2274.55l116.876,205.321" style="fill:#fff;fill-rule:nonzero;"/><path d="M1452.87,2478.38l-5.214,2.968l-116.876,-205.321l5.214,-2.968l116.876,205.321Z" style="fill:#fff;"/></g><g><path d="M1513.44,2410.37l-236.911,-97.922" style="fill:#fff;fill-rule:nonzero;"/><path d="M1514.58,2407.6l-2.292,5.545l-236.911,-97.923l2.292,-5.545l236.911,97.923Z" style="fill:#fff;"/></g><g><path d="M1415.52,2495.66l-129.511,-186.368" style="fill:#fff;fill-rule:nonzero;"/><path d="M1417.98,2493.95l-4.927,3.424l-129.511,-186.368l4.927,-3.424l129.511,186.368Z" style="fill:#fff;"/></g><g><path d="M1333.39,2527.25l9.476,-252.705" style="fill:#fff;fill-rule:nonzero;"/><path d="M1345.86,2274.66l-9.476,252.706l-5.996,-0.225l9.476,-252.706l5.996,0.225Z" style="fill:#fff;"/></g><g><path d="M1380.77,2517.77l-113.717,-195.846" style="fill:#fff;fill-rule:nonzero;"/><path d="M1383.36,2516.27l-5.188,3.012l-113.717,-195.846l5.189,-3.013l113.716,195.847Z" style="fill:#fff;"/></g><g><path d="M1289.16,2527.25l37.905,-246.387" style="fill:#fff;fill-rule:nonzero;"/><path d="M1330.03,2281.32l-37.905,246.387l-5.93,-0.912l37.905,-246.387l5.93,0.912Z" style="fill:#fff;"/></g><g><path d="M1254.42,2527.25l9.476,-199.004" style="fill:#fff;fill-rule:nonzero;"/><path d="M1266.89,2328.39l-9.477,199.005l-5.993,-0.286l9.476,-199.004l5.994,0.285Z" style="fill:#fff;"/></g><g><path d="M1210.19,2514.61l12.634,-94.764" style="fill:#fff;fill-rule:nonzero;"/><path d="M1225.8,2420.25l-12.634,94.764l-5.948,-0.793l12.635,-94.764l5.947,0.793Z" style="fill:#fff;"/></g></g></g></svg>